<svg width="237" height="152" viewBox="0 0 237 152" fill="none" xmlns="http://www.w3.org/2000/svg">
<g clip-path="url(#clip0)">
<path d="M171.895 142.606L170.669 127.368L167.166 143.482C167.166 143.482 167.212 147.547 167.328 152H171.816C171.967 146.91 171.895 142.606 171.895 142.606Z" fill="#F2F2F2"/>
<path d="M108.857 148.025C108.512 146.6 108.268 145.153 108.128 143.693L107.637 138.422C107.431 136.978 107.219 135.706 107.006 134.584C105.445 126.579 103.833 126.289 103.833 126.289C103.763 126.342 103.696 126.401 103.627 126.461C103.437 126.634 103.261 126.82 103.099 127.018C100.531 130.282 98.7896 138.746 97.8745 144.36C97.3692 147.462 97.1174 149.693 97.1174 149.693C97.1174 149.693 97.3463 150.644 97.6583 152H109.374C109.33 150.662 109.157 149.331 108.857 148.025Z" fill="#F2F2F2"/>
<path d="M200.984 0.0605469H36.3556C16.7396 0.0605469 0.690186 16.11 0.690186 35.7259V116.335C0.690186 135.951 16.7396 152 36.3556 152H88.5337L87.8604 148.83C87.8604 148.83 86.1285 137.654 87.8604 128.941C88.4197 126.207 88.8034 123.44 89.0092 120.657C89.2259 117.516 89.7394 114.402 90.543 111.357C90.5887 111.181 90.6402 111.007 90.688 110.831C90.2656 110.717 90.0715 110.625 90.1696 110.567C90.4402 110.407 90.5891 109.918 90.6632 109.296C91.1245 105.185 92.0042 101.131 93.2887 97.198C91.5387 98.2966 90.3768 98.4132 89.6162 97.9875C86.9433 97.2576 88.0529 91.2458 88.0529 91.2458C88.0529 91.2458 89.714 78.243 90.2659 73.5349C90.5831 70.8287 94.6478 69.2952 98.246 68.4625C98.6251 67.6493 98.8982 66.83 98.7248 65.9702C98.7132 65.9123 98.6964 65.8563 98.681 65.7998C98.2235 64.7836 97.2935 63.9475 96.9445 62.8952C96.7898 62.612 96.6809 62.3061 96.6217 61.9889C96.3126 60.1847 97.9996 58.6262 98.486 56.891C97.9898 56.4118 97.6194 55.8177 97.4073 55.1613C96.6661 53.641 97.0275 51.8163 99.4077 50.4074C99.8829 50.1262 100.386 49.8779 100.898 49.6398C101.085 49.5187 101.289 49.4252 101.503 49.3623C103.206 48.592 104.918 47.8465 105.937 46.3467C106.2 45.9604 106.43 45.5123 106.854 45.3092C107.055 45.2237 107.269 45.1757 107.486 45.1678C110.768 44.9159 113.739 47.73 117.005 47.3267C117.995 47.2045 119.005 46.7886 119.954 47.088C120.578 47.2847 121.065 47.7641 121.485 48.2597C122.626 49.6223 123.453 51.22 123.905 52.9389C124.358 54.6578 124.426 56.4555 124.104 58.2035C123.689 60.355 122.682 62.5726 123.408 64.6427C123.941 66.1637 125.369 67.3981 125.379 69.0071C125.387 70.3311 124.447 71.3875 123.539 72.4177C123.657 72.5384 123.772 72.6625 123.885 72.7897C126.104 75.318 125.684 77.4757 125.371 78.3396L125.371 78.3401L124.23 89.3516L123.268 96.739C123.268 96.739 123.03 99.7708 120.789 100.436C120.136 100.738 119.281 100.817 118.157 100.475C117.428 100.253 116.813 100.031 116.291 99.8156C116.784 101.39 117.633 104.605 117.495 107.725C117.303 112.082 117.88 112.461 117.88 112.461C117.844 112.506 117.803 112.546 117.758 112.582C120.043 117.632 120.064 122.814 117.688 127.994C114.993 133.866 117.88 147.504 117.88 147.504C117.88 147.504 118.085 149.631 118.178 152H159.505C158.848 145.73 158.058 139.454 157.708 138.753C157.129 137.596 157.864 118.541 158.138 111.923C158.016 111.892 157.897 111.861 157.785 111.828C157.589 111.772 157.414 111.714 157.251 111.654C157.243 111.991 157.279 112.327 157.357 112.655C157.601 113.223 157.017 113.64 156.026 113.924C156.602 116.738 157.315 121.974 154.905 122.989C152.427 124.033 152.377 117.693 152.513 114.389C152.201 114.401 151.887 114.407 151.577 114.407C148.6 114.407 152.453 79.9018 152.278 77.6249C152.103 75.3479 153.679 66.0649 153.679 66.0649C153.679 66.0649 154.205 64.1383 155.781 63.788C157.357 63.4376 164.889 59.0589 164.889 59.0589C165.312 58.4638 165.848 57.9569 166.465 57.5665V57.3074C166.661 57.1244 166.87 56.9554 167.09 56.8015C166.998 55.2711 166.791 53.2967 166.64 51.9628C165.794 51.1001 165.222 50.0059 164.997 48.8183C164.674 48.5664 164.368 48.2943 164.08 48.0035C163.357 47.1742 162.942 46.1208 162.905 45.0211C162.873 43.9289 163.031 42.8393 163.372 41.8013C163.461 41.4563 163.598 41.1254 163.778 40.818C164.026 40.4616 164.336 40.1535 164.695 39.9089C164.801 39.8301 164.911 39.7562 165.021 39.6818C165.253 39.2307 165.593 38.8442 166.012 38.5569C166.906 37.97 168.056 38.018 169.125 38.0446C169.141 38.045 169.157 38.0449 169.173 38.045C169.372 38.0131 169.571 37.9867 169.77 37.9658C169.887 37.9427 169.995 37.886 170.08 37.8027C170.165 37.7193 170.224 37.613 170.249 37.4967C170.394 37.6358 170.539 37.7748 170.683 37.9138C170.901 37.9106 171.118 37.9144 171.334 37.9249C171.43 37.7051 171.543 37.4931 171.672 37.2907C171.751 37.517 171.831 37.7432 171.91 37.9695C172.128 37.9927 172.345 38.0219 172.561 38.0594C172.731 37.9241 172.901 37.7889 173.072 37.6536C173.109 37.6236 173.245 38.0669 173.313 38.219C173.43 38.2491 173.547 38.281 173.663 38.3169C173.844 38.3087 174.045 38.2747 174.157 38.2766C174.773 38.2557 175.383 38.4078 175.917 38.7155C176.383 39.0549 176.766 39.4966 177.036 40.0068C177.724 41.0955 178.151 42.3284 178.284 43.6094C178.619 44.0727 178.855 44.5996 178.977 45.1576C179.266 46.9159 177.595 48.3851 177.264 50.136C177.088 51.07 177.289 52.1045 176.814 52.9275C176.605 53.2589 176.332 53.545 176.011 53.7687C175.821 53.9104 175.623 54.0407 175.418 54.1592C175.429 55.2183 175.551 56.2735 175.781 57.3074L176.006 58.1715C176.356 58.4241 176.734 58.7162 177.149 59.0589C177.149 59.0589 182.054 61.1607 183.805 62.2116C185.345 63.1355 187.019 63.2482 187.52 64.4518L187.658 64.4886C187.658 64.4886 189.41 83.9303 189.585 87.2582C189.76 90.586 191.862 111.079 191.512 111.954C191.382 112.279 190.556 112.65 189.559 112.946C190.141 115.606 191.08 121.391 188.534 122.463C185.953 123.55 186.006 116.629 186.16 113.469C185.816 113.438 185.59 113.348 185.557 113.18C185.528 113.038 185.437 112.395 185.305 111.414C185.087 111.449 184.86 111.484 184.619 111.52C184.571 111.527 184.52 111.535 184.471 111.542C186.692 118.528 181.773 137.053 180.827 140.679C180.333 142.574 179.8 147.259 179.319 152H200.984C220.6 152 236.649 135.951 236.649 116.335V35.7259C236.649 16.11 220.6 0.0605469 200.984 0.0605469Z" fill="#E7F2F9"/>
<path d="M53.517 64.3201C66.7154 64.3201 77.4148 54.5836 77.4148 42.5731C77.4148 30.5626 66.7154 20.8262 53.517 20.8262C40.3187 20.8262 29.6193 30.5626 29.6193 42.5731C29.6193 54.5836 40.3187 64.3201 53.517 64.3201Z" fill="#3F3D56"/>
<path d="M92.8854 113.638C92.8854 113.638 100.935 108.104 100.935 105.588C100.935 103.073 106.469 86.7217 109.488 94.0168C112.507 101.312 105.212 111.626 105.212 111.626C105.212 111.626 97.1619 126.216 92.3823 128.731C87.6028 131.247 83.5779 129.738 83.5779 129.738V122.946L88.1767 116.139C88.6972 115.369 89.3986 114.738 90.2195 114.302C91.0405 113.866 91.9559 113.638 92.8854 113.638Z" fill="#FFB9B9"/>
<path d="M70.0046 75.1094C70.0046 75.1094 82.0683 78.9239 83.3261 80.6848C84.5839 82.4457 85.087 79.427 88.6087 90.9985C92.1305 102.57 93.011 113.764 93.011 113.764C93.011 113.764 84.3323 116.657 85.3385 127.977C86.3447 139.297 83.8292 151.623 83.8292 151.623H80.6887L73.767 130.241L82.0683 97.7905C82.0683 97.7905 70.2672 77.8353 70.0046 75.1094Z" fill="#575A89"/>
<path d="M65.9689 64.5851C74.3047 64.5851 81.0622 57.8276 81.0622 49.4918C81.0622 41.1559 74.3047 34.3984 65.9689 34.3984C57.6331 34.3984 50.8756 41.1559 50.8756 49.4918C50.8756 57.8276 57.6331 64.5851 65.9689 64.5851Z" fill="#FFB9B9"/>
<path d="M71.7547 60.8105C71.7547 60.8105 67.4783 74.8976 71.2516 76.9101C75.0249 78.9225 79.3014 87.9785 79.3014 87.9785L72.7609 95.2736H57.6676L50.8756 87.7269L48.1085 74.8976L51.8819 71.879C51.8819 71.879 55.9067 61.8167 55.9067 56.5341C55.9067 51.2514 71.7547 60.8105 71.7547 60.8105Z" fill="#FFB9B9"/>
<path d="M73.0125 76.4076C73.0125 76.4076 69.9938 75.6529 71.7547 78.6716C73.5156 81.6903 75.2765 87.2245 68.9876 87.476C62.6987 87.7276 56.4098 84.4574 54.3974 77.6654C52.3849 70.8734 51.6303 71.3765 50.8756 71.6281C50.1209 71.8796 42.0712 80.1809 42.0712 80.1809L44.8383 95.7774L45.8445 151.623H82.5716C82.5716 151.623 84.0809 135.523 81.5653 131.75C79.0498 127.976 83.8293 118.417 83.8293 118.417C83.8293 118.417 88.1058 111.877 84.8356 99.2991C81.5653 86.7214 74.2702 76.4076 73.0125 76.4076Z" fill="#0A79BF"/>
<path d="M52.6363 71.6287C52.6363 71.6287 48.863 69.8678 45.5928 72.8865C42.3226 75.9052 35.0275 78.4207 35.0275 79.93C35.0275 81.4394 41.3163 124.455 37.0399 132.002C32.7635 139.549 28.2355 151.623 28.2355 151.623H49.2186C49.2186 151.623 52.6363 139.046 56.1581 132.254C59.6799 125.462 59.4283 106.343 58.4221 100.558C57.4159 94.7718 52.6363 71.6287 52.6363 71.6287Z" fill="#575A89"/>
<path d="M30.4996 138.29L31.7247 151.622H45.3205L44.0836 135.02L30.4996 138.29Z" fill="#FFB9B9"/>
<path d="M92.3822 131.247L95.6524 151.623H168.352L174.641 110.619L92.3822 131.247Z" fill="#3F3D56"/>
<path d="M177.408 107.853L178.162 111.626L84.0808 134.266V130.996L177.408 107.853Z" fill="#3F3D56"/>
<path d="M137.662 114.644L137.159 118.921L142.693 118.166L140.429 113.89L137.662 114.644Z" fill="#3F3D56"/>
<path d="M107.224 71.3773C107.224 71.3773 118.292 70.6227 121.311 79.1755C124.33 87.7284 131.373 103.073 134.14 105.337C136.907 107.601 139.926 113.639 139.423 115.651" stroke="#3F3D56" stroke-width="1.25778" stroke-miterlimit="10"/>
<path d="M108.859 71.2515C108.859 72.4324 107.603 73.3897 105.589 73.3897C103.574 73.3897 102.57 72.4324 102.57 71.2515C102.57 70.0706 103.574 69.1133 105.589 69.1133C107.603 69.1133 108.859 70.0706 108.859 71.2515Z" fill="#0A79BF"/>
<path d="M90.2438 110.494C90.2438 110.494 92.1305 102.57 88.6087 90.9986C85.087 79.427 84.5839 82.4457 83.3261 80.6848C82.0683 78.9239 70.0046 75.1094 70.0046 75.1094C70.0909 76.0051 71.4231 78.7612 73.173 82.0582C72.858 80.8698 72.3807 79.7304 71.7545 78.6723C69.9936 75.6537 73.0123 76.4083 73.0123 76.4083C74.2701 76.4083 81.5652 86.7221 84.8354 99.2999C88.1056 111.878 83.8292 118.418 83.8292 118.418L90.2438 110.494Z" fill="#575A89"/>
<path d="M70.1195 75.0244C70.1195 75.0244 71.6088 80.6737 72.8766 81.4966C74.1444 82.3195 81.6633 90.1312 81.6633 90.1312L80.6848 83.8288L76.6599 77.7915L75.5894 77.0147L70.1195 75.0244Z" fill="#575A89"/>
<path opacity="0.1" d="M36.6626 92.3819L37.0134 79.4268C37.0134 79.4268 28.7387 82.9485 27.984 98.0419C27.2293 113.135 29.2418 141.561 32.0089 141.812C34.776 142.064 47.8569 139.045 47.8569 139.045C47.8569 139.045 49.8693 102.57 49.1146 97.7903C48.36 93.0107 36.6626 92.3819 36.6626 92.3819Z" fill="black"/>
<path d="M37.2916 79.4268H35.2525C35.2525 79.4268 26.9778 82.9485 26.2231 98.0419C25.4685 113.135 27.4809 141.561 30.248 141.812C33.0151 142.064 46.096 139.045 46.096 139.045C46.096 139.045 48.1084 102.57 47.3538 97.7903C46.5991 93.0107 37.2916 79.4268 37.2916 79.4268Z" fill="#575A89"/>
<path d="M47.9827 62.9496C56.5963 62.9496 63.5791 55.1221 63.5791 45.4665C63.5791 35.8108 56.5963 27.9834 47.9827 27.9834C39.369 27.9834 32.3862 35.8108 32.3862 45.4665C32.3862 55.1221 39.369 62.9496 47.9827 62.9496Z" fill="#3F3D56"/>
<path d="M59.1768 59.6786C60.9134 59.6786 62.3212 57.5951 62.3212 55.0249C62.3212 52.4547 60.9134 50.3711 59.1768 50.3711C57.4402 50.3711 56.0323 52.4547 56.0323 55.0249C56.0323 57.5951 57.4402 59.6786 59.1768 59.6786Z" fill="#FFB9B9"/>
<path d="M32.3863 40.812C39.4718 40.812 45.2156 35.0681 45.2156 27.9826C45.2156 20.8972 39.4718 15.1533 32.3863 15.1533C25.3009 15.1533 19.557 20.8972 19.557 27.9826C19.557 35.0681 25.3009 40.812 32.3863 40.812Z" fill="#3F3D56"/>
<path d="M34.0444 38.2614C32.1806 39.2097 30.1133 39.688 28.0224 39.6547C25.9315 39.6213 23.8804 39.0774 22.0479 38.0701C20.2153 37.0629 18.6567 35.6229 17.5078 33.8756C16.359 32.1283 15.6547 30.1266 15.4564 28.0449C15.1824 29.8419 15.2934 31.6765 15.7822 33.4273C16.2709 35.1781 17.1261 36.805 18.2912 38.2003C19.4562 39.5956 20.9045 40.7273 22.54 41.5205C24.1756 42.3137 25.961 42.7502 27.778 42.8012C29.595 42.8522 31.4021 42.5164 33.0795 41.8162C34.7569 41.1159 36.2664 40.0672 37.5078 38.7395C38.7493 37.4117 39.6944 35.8353 40.2805 34.1147C40.8666 32.394 41.0804 30.5685 40.9076 28.759C40.6024 30.7748 39.8204 32.6886 38.6267 34.3413C37.433 35.994 35.862 37.3379 34.0444 38.2614Z" fill="#3F3D56"/>
<path d="M25.3478 30.1041C24.0595 28.4569 23.1935 26.5198 22.8251 24.4613C22.4566 22.4029 22.597 20.2856 23.2339 18.2938C23.8709 16.302 24.9851 14.4961 26.4795 13.0334C27.9739 11.5707 29.8033 10.4954 31.8083 9.90137C29.9922 9.97725 28.2129 10.4382 26.5884 11.2538C24.9639 12.0693 23.5313 13.2208 22.3855 14.6319C21.2396 16.043 20.4068 17.6815 19.9421 19.4388C19.4774 21.1961 19.3915 23.0321 19.6901 24.8252C19.9887 26.6182 20.6649 28.3273 21.6739 29.8392C22.683 31.3511 24.0018 32.6313 25.5431 33.595C27.0843 34.5586 28.8128 35.1838 30.6139 35.4289C32.415 35.674 34.2477 35.5335 35.9904 35.0168C33.9535 35.104 31.9252 34.7037 30.0742 33.8492C28.2231 32.9948 26.6028 31.7108 25.3478 30.1041Z" fill="#3F3D56"/>
<path d="M66.8492 44.3338C71.8507 44.3338 75.9052 41.4056 75.9052 37.7934C75.9052 34.1812 71.8507 31.2529 66.8492 31.2529C61.8477 31.2529 57.7932 34.1812 57.7932 37.7934C57.7932 41.4056 61.8477 44.3338 66.8492 44.3338Z" fill="#3F3D56"/>
</g>
<defs>
<clipPath id="clip0">
<rect width="235.959" height="151.939" fill="white" transform="translate(0.690186 0.0605469)"/>
</clipPath>
</defs>
</svg>
