<svg width="268" height="147" viewBox="0 0 268 147" fill="none" xmlns="http://www.w3.org/2000/svg">
<g clip-path="url(#clip0)">
<path opacity="0.1" d="M265.055 135.72C264.016 138.284 262.737 140.743 261.235 143.066C260.531 144.174 259.758 145.237 258.922 146.248C258.914 146.259 258.906 146.268 258.896 146.276H0.195557L0.230474 146.248C0.463254 146.067 1.82967 144.961 3.95496 143.066C5.47967 141.709 7.39312 139.945 9.54169 137.822C27.1143 120.538 60.8697 79.6267 32.7569 42.1491C6.62262 7.30888 34.7611 0.986569 53.323 0.248656C60.4546 -0.0307278 67.5693 1.13235 74.2406 3.6682C82.8163 6.92712 98.4894 11.9226 118.909 14.2131C119.579 14.2876 120.254 14.3621 120.939 14.4296C131.749 15.5304 142.633 15.7281 153.477 15.0209C153.796 15.0023 154.117 14.979 154.44 14.9557C165.167 14.2025 175.813 12.5557 186.266 10.0324C186.944 9.86714 187.612 9.71117 188.277 9.55521C223.108 1.49636 255.218 28.9621 247.189 60.001C244.222 71.4818 244.976 83.719 254.871 93.6192C271.073 109.779 269.11 125.694 265.055 135.72Z" fill="#0A79BF"/>
<path d="M265.055 135.719C264.016 138.283 262.737 140.742 261.235 143.065C260.531 144.173 259.758 145.236 258.921 146.248H0.230347C0.463127 146.066 1.82955 144.96 3.95483 143.065C5.47954 141.708 7.393 139.944 9.54156 137.821L36.8071 132.188C37.1594 132.115 37.5182 132.078 37.8779 132.078L66.9452 132.036H66.9754L81.3729 132.018H81.4055L93.5566 132.004H101.511H109.658L143.043 131.957H143.097H145.683H150.227H155.9H157.408L163.142 131.892H165.036L181.713 131.869H187.039H189.599L208.862 131.843H214.598L232.843 131.817L248.244 131.799C248.673 131.799 249.1 131.85 249.517 131.95L265.055 135.719Z" fill="#454B69"/>
<path opacity="0.4" d="M3.95483 143.066H261.235C260.531 144.174 259.758 145.237 258.921 146.249H0.230347C0.458471 146.055 1.82489 144.95 3.95483 143.066Z" fill="black"/>
<path d="M170.875 70.6703L170.358 70.7704L146.996 75.2584C140.211 76.562 133.327 77.8725 126.435 77.3721C121.442 77.0089 116.777 75.5284 111.979 74.2295C109.267 73.4939 106.392 73.2006 105.473 70.1652C104.204 65.9751 106.269 59.7715 106.755 55.5256C107.221 51.3588 107.496 47.0873 106.667 42.9694C106.483 42.0441 106.24 41.1313 105.941 40.2366C105.11 37.7715 103.804 35.2085 104.509 32.7062C105.065 30.7205 106.762 29.3029 108.35 27.99C111.46 25.4294 114.635 22.5593 115.869 18.7207C116.474 16.8585 116.588 14.8542 117.24 13.006C118.476 9.49098 121.581 6.86289 125.036 5.47086C128.49 4.07883 132.289 3.7832 136.016 3.7832C139.307 3.78339 142.594 4.0019 145.856 4.43732C149.412 4.90288 153.002 5.66872 156.128 7.4332C159.254 9.19767 161.889 12.0888 162.618 15.6131C163.649 20.5969 160.786 25.9043 162.322 30.7438C163.095 33.1903 164.883 35.1666 166.124 37.406C167.135 39.2792 167.76 41.3368 167.96 43.4564C168.16 45.5759 167.931 47.714 167.288 49.7434C165.803 54.3454 162.166 59.001 164.029 63.4634C165.214 66.301 168.24 67.8164 170.349 70.0651C170.536 70.2668 170.712 70.4686 170.875 70.6703Z" fill="#454B69"/>
<path opacity="0.1" d="M170.358 70.0852V70.7719L146.996 75.2599C140.211 76.5635 133.327 77.874 126.435 77.3736C121.442 77.0104 116.777 75.5299 111.979 74.231C109.267 73.4954 106.392 73.2021 105.473 70.1667C104.204 65.9766 106.269 59.773 106.755 55.5271C107.221 51.3604 114.388 36.1482 113.56 32.0303L156.391 33.8925C156.68 36.1668 168 47.5823 167.295 49.7635C165.809 54.3655 162.173 59.0212 164.036 63.4836C165.223 66.3211 168.249 67.8366 170.358 70.0852Z" fill="black"/>
<path d="M126.595 58.5654C126.849 60.0063 126.984 61.5915 126.248 62.8485C125.268 64.5339 123.131 65.0716 121.22 65.4534L114.586 66.7802C114.134 66.871 113.655 66.9734 113.317 67.283C112.919 67.6392 112.784 68.2025 112.726 68.7332C112.458 71.1355 113.308 73.5029 114.083 75.7911C115.65 80.4258 116.965 85.1582 118.946 89.6299C120.927 94.1016 123.646 98.3708 127.526 101.36C131.407 104.349 136.542 105.941 141.293 104.772C145.432 103.755 148.826 100.834 151.752 97.7353C154.166 95.1748 156.424 92.3814 157.595 89.0596C158.402 86.7784 158.665 84.3481 158.919 81.9412C159.312 78.2508 159.704 74.5605 160.097 70.8702C160.281 69.1383 160.402 67.1899 159.278 65.8607C158.784 65.2764 158.114 64.8877 157.429 64.5269C154.883 63.1744 152.201 62.0571 149.831 60.4276C147.462 58.7982 145.36 56.5542 144.64 53.7701C144.21 52.0987 144.287 50.2784 143.553 48.7211C142.734 46.9753 140.993 45.7927 139.13 45.2736C137.268 44.7545 135.304 44.8244 133.385 45.0408C131.467 45.2573 124.074 45.8114 123.28 47.9739C122.854 49.1378 124.621 51.6355 125.04 52.7808C125.73 54.6588 126.25 56.5947 126.595 58.5654Z" fill="#EFB7B9"/>
<path opacity="0.1" d="M126.595 58.5654C126.849 60.0063 126.984 61.5915 126.248 62.8485C125.268 64.5339 123.131 65.0716 121.22 65.4534L114.586 66.7802C114.134 66.871 113.655 66.9734 113.317 67.283C112.919 67.6392 112.784 68.2025 112.726 68.7332C112.458 71.1355 113.308 73.5029 114.083 75.7911C115.65 80.4258 116.965 85.1582 118.946 89.6299C120.927 94.1016 123.646 98.3708 127.526 101.36C131.407 104.349 136.542 105.941 141.293 104.772C145.432 103.755 148.826 100.834 151.752 97.7353C154.166 95.1748 156.424 92.3814 157.595 89.0596C158.402 86.7784 158.665 84.3481 158.919 81.9412C159.312 78.2508 159.704 74.5605 160.097 70.8702C160.281 69.1383 160.402 67.1899 159.278 65.8607C158.784 65.2764 158.114 64.8877 157.429 64.5269C154.883 63.1744 152.201 62.0571 149.831 60.4276C147.462 58.7982 145.36 56.5542 144.64 53.7701C144.21 52.0987 144.287 50.2784 143.553 48.7211C142.734 46.9753 140.993 45.7927 139.13 45.2736C137.268 44.7545 135.304 44.8244 133.385 45.0408C131.467 45.2573 124.074 45.8114 123.28 47.9739C122.854 49.1378 124.621 51.6355 125.04 52.7808C125.73 54.6588 126.25 56.5947 126.595 58.5654Z" fill="black"/>
<path d="M142.562 83.8787L146.451 75.6429C148.274 71.7834 150.136 67.7284 149.943 63.4662C149.906 62.6188 149.897 61.5597 150.642 61.1756C150.965 61.0435 151.317 60.9986 151.663 61.0452C155.758 61.2546 159.8 62.0721 163.654 63.4708C164.401 63.7408 165.167 64.0528 165.691 64.6487C166.215 65.2446 166.426 66.0454 166.606 66.8135C167.216 69.4108 167.662 72.0442 167.939 74.6978C168.638 81.2669 168.291 87.8941 167.939 94.4841L166.906 114.603C166.911 114.889 166.853 115.172 166.736 115.432C166.48 115.898 165.903 116.054 165.384 116.142C163.384 116.484 161.34 116.414 159.315 116.338C145.069 115.798 130.748 114.969 116.595 116.696C116.659 114.603 116.625 112.508 116.495 110.411C115.934 101.358 113.588 92.5265 111.283 83.7553C109.94 78.6341 108.639 73.0474 110.801 68.2219C111.119 67.4598 111.576 66.7636 112.149 66.1687C113.068 65.2679 114.323 64.793 115.566 64.4531C117.71 63.8699 119.931 63.6187 122.152 63.7082L136.828 95.662C137.499 97.1239 138.05 98.6625 138.719 100.106C139.319 97.6127 138.597 94.6913 139.319 91.9887C140.097 89.1837 141.321 86.4998 142.562 83.8787Z" fill="white"/>
<path d="M141.028 105.866C143.653 106.031 146.205 104.686 148.011 102.784C149.817 100.882 151.009 98.4705 152.017 96.0333C153.466 92.5592 154.618 88.9685 155.46 85.2997C156.158 82.1805 156.654 78.9518 156.172 75.7907C155.507 71.426 153.037 67.4595 152.615 63.0646C152.543 62.2964 152.59 61.3979 153.207 60.9346C153.588 60.6483 154.091 60.6087 154.566 60.5808C158.956 60.3201 163.78 60.369 167.181 63.1554C168.216 64.0027 169.057 65.0618 170.069 65.9347C172.481 68.0298 175.889 69.0959 177.437 71.8776C177.977 72.846 178.235 73.9424 178.612 74.9853C179.502 77.4527 181.04 79.6222 182.57 81.7568C181.087 88.014 179.383 94.2758 177.9 100.533C177.032 104.204 176.157 107.889 174.792 111.404C173.899 113.708 172.774 116.059 173.049 118.527C173.158 119.498 173.482 120.426 173.764 121.362C174.751 124.647 175.214 128.066 175.135 131.495L108.713 131.658C111.895 127.095 112.829 121.499 112.505 115.948C112.349 113.287 111.749 110.61 110.41 108.308C108.301 104.7 104.591 102.349 100.934 100.335C98.373 98.9383 95.6238 106.797 92.8561 105.896C93.303 102.735 93.5079 90.5326 93.3216 87.3505C93.2611 86.3077 93.168 85.2369 93.4892 84.2406C93.7081 83.5586 94.1108 82.9487 94.3831 82.2852C95.4749 79.6292 94.4343 76.233 96.1988 73.9727C97.4186 72.4014 99.5578 71.9545 101.297 70.9861C103.082 69.9898 104.463 68.4255 106.017 67.0893C109.069 64.4985 112.797 62.8339 116.763 62.2917C117.92 64.1165 118.623 66.1918 118.813 68.344C118.932 69.6965 118.846 71.0676 119.035 72.413C119.293 74.2357 120.047 75.9466 120.794 77.632C123.907 84.6596 127.031 91.7082 130.974 98.3075C132.089 100.17 133.302 102.032 134.917 103.482C136.533 104.932 138.858 105.968 141.028 105.866Z" fill="#0A79BF"/>
<path opacity="0.1" d="M141.028 105.866C143.653 106.031 146.205 104.686 148.011 102.784C149.817 100.882 151.009 98.4705 152.017 96.0333C153.466 92.5592 154.618 88.9685 155.46 85.2997C156.158 82.1805 156.654 78.9518 156.172 75.7907C155.507 71.426 153.037 67.4595 152.615 63.0646C152.543 62.2964 152.59 61.3979 153.207 60.9346C153.588 60.6483 154.091 60.6087 154.566 60.5808C158.956 60.3201 163.78 60.369 167.181 63.1554C168.216 64.0027 169.057 65.0618 170.069 65.9347C172.481 68.0298 175.889 69.0959 177.437 71.8776C177.977 72.846 178.235 73.9424 178.612 74.9853C179.502 77.4527 181.04 79.6222 182.57 81.7568C181.087 88.014 179.383 94.2758 177.9 100.533C177.032 104.204 176.157 107.889 174.792 111.404C173.899 113.708 172.774 116.059 173.049 118.527C173.158 119.498 173.482 120.426 173.764 121.362C174.751 124.647 175.214 128.066 175.135 131.495L108.713 131.658C111.895 127.095 112.829 121.499 112.505 115.948C112.349 113.287 111.749 110.61 110.41 108.308C108.301 104.7 104.591 102.349 100.934 100.335C98.373 98.9383 95.6238 106.797 92.8561 105.896C93.303 102.735 93.5079 90.5326 93.3216 87.3505C93.2611 86.3077 93.168 85.2369 93.4892 84.2406C93.7081 83.5586 94.1108 82.9487 94.3831 82.2852C95.4749 79.6292 94.4343 76.233 96.1988 73.9727C97.4186 72.4014 99.5578 71.9545 101.297 70.9861C103.082 69.9898 104.463 68.4255 106.017 67.0893C109.069 64.4985 112.797 62.8339 116.763 62.2917C117.92 64.1165 118.623 66.1918 118.813 68.344C118.932 69.6965 118.846 71.0676 119.035 72.413C119.293 74.2357 120.047 75.9466 120.794 77.632C123.907 84.6596 127.031 91.7082 130.974 98.3075C132.089 100.17 133.302 102.032 134.917 103.482C136.533 104.932 138.858 105.968 141.028 105.866Z" fill="black"/>
<path d="M137.515 58.0377C148.535 58.0377 157.469 49.1041 157.469 38.0838C157.469 27.0636 148.535 18.1299 137.515 18.1299C126.495 18.1299 117.561 27.0636 117.561 38.0838C117.561 49.1041 126.495 58.0377 137.515 58.0377Z" fill="#EFB7B9"/>
<path d="M127.045 64.6738C127.592 59.5108 125.445 54.4594 123.015 49.8713C121.851 47.6786 120.604 45.4927 120.019 43.0835C119.435 40.6742 119.603 37.946 121.097 35.965C122.368 34.2797 124.384 33.3696 126.249 32.3802C131.512 29.5869 136.323 25.4806 138.637 19.9893C137.329 20.7016 137.669 22.8269 138.823 23.765C139.978 24.7031 141.552 24.8847 142.971 25.3316C148.149 26.9611 151.254 32.1242 153.745 36.9474C154.152 37.7342 154.566 38.5652 154.562 39.4521C154.557 40.339 154.152 41.1258 153.728 41.88C152.499 44.0681 150.995 46.1701 150.437 48.6167C149.797 51.41 150.472 54.3477 151.349 57.0875C152.28 60.0019 153.516 62.9396 155.751 65.03C157.986 67.1204 161.452 68.1586 164.201 66.8084C161.457 62.09 158.614 56.8175 159.685 51.4682C160.202 48.9076 161.592 46.5798 162.183 44.0332C163.31 39.1751 161.433 34.1773 159.592 29.5403L154.089 15.7015C153.249 13.5855 152.292 11.3276 150.365 10.1288C149.061 9.32101 147.483 9.11151 145.956 8.96486C141.039 8.52723 135.946 8.67155 131.37 10.5012C123.032 13.8323 117.803 22.0448 113.655 30.0105C112.412 32.3965 111.185 34.9315 111.237 37.6224C111.264 39.0983 111.676 40.5345 112.012 41.9731C113.376 47.8299 113.45 53.8984 113.52 59.9112C113.574 64.5249 113.334 68.8732 111.316 73.0749C114.081 73.6243 118.092 75.1071 120.829 74.0223C124.398 72.6117 126.595 68.2656 127.045 64.6738Z" fill="#454B69"/>
<g opacity="0.1">
<path opacity="0.1" d="M113.508 59.8146C113.518 59.1581 113.518 58.4955 113.508 57.8266C113.438 51.8139 113.364 45.7453 112 39.8886C111.695 38.7489 111.457 37.5923 111.288 36.4248C111.24 36.8257 111.219 37.2293 111.225 37.6329C111.253 39.1088 111.665 40.545 112 41.9836C113.357 47.8054 113.441 53.8368 113.508 59.8146Z" fill="black"/>
<path opacity="0.1" d="M162.183 44.0339C162.488 42.6738 162.59 41.2758 162.485 39.8857C162.44 40.5771 162.338 41.2637 162.183 41.9389C161.591 44.4995 160.202 46.8063 159.685 49.3739C159.462 50.5063 159.4 51.6645 159.499 52.8144C159.536 52.3628 159.598 51.9136 159.685 51.4689C160.202 48.9013 161.591 46.5852 162.183 44.0339Z" fill="black"/>
<path opacity="0.1" d="M154.38 38.3842C154.494 38.0535 154.555 37.7072 154.561 37.3576C154.561 36.4707 154.152 35.6397 153.744 34.8529C151.254 30.0297 148.158 24.8713 142.971 23.2371C141.551 22.7902 139.98 22.6086 138.823 21.6705C138.525 21.4141 138.282 21.1009 138.107 20.7491C137.932 20.3974 137.829 20.0142 137.804 19.6221C135.28 24.2544 130.946 27.7973 126.248 30.2857C124.386 31.2751 122.368 32.1852 121.097 33.8706C119.903 35.4535 119.556 37.5136 119.763 39.5062C119.881 38.2273 120.341 37.004 121.097 35.9656C122.368 34.2802 124.384 33.3701 126.248 32.3808C130.946 29.8923 135.28 26.3494 137.804 21.7171C137.829 22.1092 137.932 22.4924 138.107 22.8441C138.282 23.1959 138.525 23.5092 138.823 23.7656C139.987 24.6967 141.551 24.8852 142.971 25.3322C148.148 26.9616 151.254 32.1247 153.744 36.9479C153.997 37.4076 154.209 37.8881 154.38 38.3842Z" fill="black"/>
<path opacity="0.1" d="M155.751 62.9356C153.516 60.8406 152.285 57.9075 151.349 54.9931C150.788 53.356 150.413 51.6607 150.232 49.9395C150.015 52.3301 150.609 54.7766 151.349 57.0881C152.28 60.0025 153.516 62.9402 155.751 65.0306C157.986 67.121 161.452 68.1592 164.201 66.809C163.87 66.2434 163.542 65.6684 163.216 65.0888C160.663 65.8081 157.73 64.7839 155.751 62.9356Z" fill="black"/>
<path opacity="0.1" d="M127.045 62.5786C126.595 66.1704 124.398 70.5164 120.82 71.9364C118.336 72.9211 114.8 71.7898 112.102 71.1636C111.87 71.817 111.604 72.458 111.306 73.084C114.072 73.6334 118.083 75.1162 120.82 74.0314C124.398 72.6115 126.595 68.2655 127.045 64.6737C127.137 63.775 127.154 62.8702 127.096 61.9688C127.082 62.1713 127.061 62.3761 127.045 62.5786Z" fill="black"/>
</g>
<path d="M155.251 120.295C151.654 119.725 148.004 118.624 144.438 119.364C142.371 119.792 140.481 120.821 138.763 122.064C139.708 122.821 140.811 123.496 141.412 124.548C141.785 125.276 142.064 126.048 142.245 126.845C142.622 128.242 143.002 129.667 143.06 131.119C143.118 132.572 142.827 134.085 141.961 135.256C146.496 135.703 150.891 134.585 155.313 133.494C155.819 133.405 156.301 133.21 156.726 132.923C157.425 132.374 157.63 131.396 157.634 130.505C157.634 128.912 157.187 127.36 156.733 125.833C156.193 124.001 155.793 122.115 155.251 120.295Z" fill="white"/>
<path d="M179.534 81.0322C181.32 81.265 182.705 82.7059 183.724 84.1864C186.585 88.3066 187.819 93.302 189.192 98.1276C190.899 104.129 192.907 110.035 195.214 115.847C195.711 117.189 196.315 118.489 197.021 119.734C197.596 120.696 198.294 121.62 198.548 122.712C199.162 125.351 196.986 127.833 194.716 129.304C193.506 130.119 192.185 130.756 190.794 131.194C189.439 131.599 188.026 131.753 186.622 131.906L173.701 133.303C167.753 133.95 161.752 134.597 155.802 133.973C155.427 132.67 156.163 131.748 156.109 130.391C156.072 129.42 155.644 128.517 155.262 127.623C154.558 126.031 154.093 124.344 153.882 122.616C153.814 121.981 153.791 121.329 153.549 120.738C153.307 120.146 152.788 119.616 152.152 119.574C155.644 119.227 158.295 118.568 161.787 118.219C163.084 118.088 164.431 117.942 165.537 117.253C166.908 116.399 167.676 114.858 168.286 113.363C169.797 109.662 170.77 105.584 169.976 101.664C169.324 98.4488 167.506 95.4553 167.516 92.1754C167.516 90.2224 168.181 88.3298 168.968 86.5421C169.802 84.6519 170.889 82.7198 172.718 81.7608C174.548 80.8017 177.469 80.7529 179.534 81.0322Z" fill="#0A79BF"/>
<path opacity="0.08" d="M179.534 81.0322C181.32 81.265 182.705 82.7059 183.724 84.1864C186.585 88.3066 187.819 93.302 189.192 98.1276C190.899 104.129 192.907 110.035 195.214 115.847C195.711 117.189 196.315 118.489 197.021 119.734C197.596 120.696 198.294 121.62 198.548 122.712C199.162 125.351 196.986 127.833 194.716 129.304C193.506 130.119 192.185 130.756 190.794 131.194C189.439 131.599 188.026 131.753 186.622 131.906L173.701 133.303C167.753 133.95 161.752 134.597 155.802 133.973C155.427 132.67 156.163 131.748 156.109 130.391C156.072 129.42 155.644 128.517 155.262 127.623C154.558 126.031 154.093 124.344 153.882 122.616C153.814 121.981 153.791 121.329 153.549 120.738C153.307 120.146 152.788 119.616 152.152 119.574C155.644 119.227 158.295 118.568 161.787 118.219C163.084 118.088 164.431 117.942 165.537 117.253C166.908 116.399 167.676 114.858 168.286 113.363C169.797 109.662 170.77 105.584 169.976 101.664C169.324 98.4488 167.506 95.4553 167.516 92.1754C167.516 90.2224 168.181 88.3298 168.968 86.5421C169.802 84.6519 170.889 82.7198 172.718 81.7608C174.548 80.8017 177.469 80.7529 179.534 81.0322Z" fill="black"/>
<path d="M98.6173 78.0088C99.4623 76.0022 100.321 73.9305 100.345 71.754C100.37 69.4005 99.4134 67.1659 98.6825 64.9312C97.7786 62.197 97.1768 59.372 96.8878 56.5068C96.8278 56.2324 96.8692 55.9455 97.0042 55.6991C97.1974 55.4267 97.5698 55.3709 97.898 55.2987C99.5089 54.9309 100.726 53.6297 101.732 52.3191C103.292 50.2951 104.609 48.095 105.657 45.764C106.427 44.0484 107.47 41.9557 109.351 41.9395C108.594 45.4962 107.655 49.0119 106.539 52.4728C108.506 51.97 110.375 51.239 112.342 50.7362C112.727 50.6146 113.13 50.5611 113.534 50.5779C114.712 50.7013 115.433 52.2958 114.749 53.2619C115.71 54.3885 117.31 54.6912 118.567 55.464C119.824 56.2368 120.727 58.1503 119.609 59.121C119.391 59.3095 119.114 59.4422 118.955 59.6843C118.415 60.5176 119.738 61.4744 119.628 62.4614C119.54 63.2691 118.504 63.6462 117.719 63.4321C116.935 63.2179 116.323 62.6313 115.624 62.2006C114.926 61.77 114.013 61.5023 113.336 61.9492C113.154 64.1397 112.959 66.3721 112.012 68.367C111.665 69.0956 111.22 69.7777 110.941 70.5342C110.674 71.3591 110.508 72.2135 110.447 73.0785L109.602 80.8045C105.57 81.6122 101.955 80.4041 98.6173 78.0088Z" fill="#EFB7B9"/>
<path d="M97.6326 84.9335L96.8901 79.9077C96.8191 79.4986 96.7794 79.0846 96.7714 78.6693C96.7714 77.5054 97.2835 76.3951 97.7793 75.3359C101.888 77.254 106.329 77.9361 110.862 77.9384C111.46 77.9384 112.142 77.8826 112.514 77.4147C113.285 78.3016 113.308 79.7285 112.98 80.8552C112.652 81.9818 112.021 82.9967 111.602 84.0955C111.39 84.6518 111.218 85.2594 110.813 85.6877C110.184 86.3651 109.165 86.4815 108.238 86.4768C107.263 86.4707 106.291 86.378 105.333 86.1998C102.852 85.7389 100.114 84.4889 97.6326 84.9335Z" fill="white"/>
<path d="M112.957 84.7282C109.768 84.365 106.6 83.8529 103.452 83.1918C101.909 82.8682 100.352 82.5074 98.7781 82.5703C97.7539 82.6122 96.6528 82.817 95.752 82.3096C96.6295 85.2961 96.6831 88.4433 95.6332 91.374C95.0117 93.1199 94.0643 94.747 93.6081 96.5441C92.6583 100.303 93.9619 104.403 92.7747 108.095C92.6492 108.577 92.4024 109.019 92.0577 109.38C91.6946 109.712 91.1988 109.885 90.8636 110.246C90.3701 110.776 90.3398 111.575 90.3375 112.299L90.3165 118.712C90.3026 122.795 90.3561 127.124 92.5117 130.584C94.9698 134.541 100.145 136.592 104.649 135.388C105.846 135.082 106.968 134.533 107.945 133.775C109.509 132.532 110.506 130.735 111.481 128.984C112.645 126.889 113.809 124.748 114.184 122.39C114.449 120.721 114.3 119.017 114.109 117.338C113.057 108.027 110.773 98.7951 111.264 89.4489C111.338 87.7404 111.928 86.0943 112.957 84.7282Z" fill="#0A79BF"/>
<path d="M126.286 123.37C124.668 123.463 123.038 123.557 121.428 123.37C120.264 123.231 119.128 122.944 117.973 122.749C114.82 122.24 111.594 122.419 108.517 123.274C105.439 124.129 102.583 125.639 100.145 127.702C99.2507 128.466 98.3475 129.637 98.841 130.705C99.3717 131.855 100.994 131.823 102.244 131.608C100.895 132.253 99.7032 133.185 98.7525 134.339C98.4033 134.765 98.0728 135.27 98.1403 135.822C98.2823 136.974 99.8466 137.183 101.003 137.083C100.626 137.488 100.88 138.205 101.36 138.48C101.839 138.755 102.435 138.699 102.977 138.599C104.177 138.379 105.335 137.978 106.413 137.409C106.194 137.98 106.574 138.648 107.112 138.932C107.649 139.216 108.303 139.195 108.906 139.097C111.751 138.631 114.125 136.653 116.9 135.875C121.337 134.635 125.978 136.613 130.59 136.753C132.033 136.797 133.514 136.65 134.829 136.054C136.442 135.321 137.743 133.945 139.447 133.457C141.34 132.917 143.512 133.538 145.243 132.605C146.503 131.927 145.367 126.706 145.046 125.7C144.457 123.861 143.865 122.642 141.903 122.455C136.938 121.969 131.288 123.082 126.286 123.37Z" fill="#EFB7B9"/>
<path d="M138.672 121.946C138.672 121.946 146.188 128.308 141.852 135.25L150.232 132.356V126.283C150.232 125.994 147.05 121.658 147.05 121.658L143.29 121.078L138.672 121.946Z" fill="white"/>
<path d="M59.9712 121.553H62.7902C64.3336 121.553 65.8139 122.166 66.9052 123.257C67.9966 124.349 68.6097 125.829 68.6097 127.372V136.011H54.1517V127.372C54.1517 126.608 54.3023 125.851 54.5947 125.145C54.8872 124.439 55.3158 123.798 55.8562 123.257C56.3966 122.717 57.0382 122.288 57.7442 121.996C58.4503 121.703 59.207 121.553 59.9712 121.553Z" fill="#3F3D56"/>
<path opacity="0.1" d="M59.9712 121.553H62.7902C64.3336 121.553 65.8139 122.166 66.9052 123.257C67.9966 124.349 68.6097 125.829 68.6097 127.372V136.011H54.1517V127.372C54.1517 126.608 54.3023 125.851 54.5947 125.145C54.8872 124.439 55.3158 123.798 55.8562 123.257C56.3966 122.717 57.0382 122.288 57.7442 121.996C58.4503 121.703 59.207 121.553 59.9712 121.553Z" fill="black"/>
<path d="M60.8023 124.733C61.4412 124.733 61.9592 124.215 61.9592 123.576C61.9592 122.937 61.4412 122.419 60.8023 122.419C60.1634 122.419 59.6454 122.937 59.6454 123.576C59.6454 124.215 60.1634 124.733 60.8023 124.733Z" fill="#3F3D56"/>
<path d="M60.8023 123.286C61.4412 123.286 61.9592 122.769 61.9592 122.13C61.9592 121.491 61.4412 120.973 60.8023 120.973C60.1634 120.973 59.6454 121.491 59.6454 122.13C59.6454 122.769 60.1634 123.286 60.8023 123.286Z" fill="#3F3D56"/>
<path d="M60.8023 121.84C61.4412 121.84 61.9592 121.322 61.9592 120.683C61.9592 120.044 61.4412 119.526 60.8023 119.526C60.1634 119.526 59.6454 120.044 59.6454 120.683C59.6454 121.322 60.1634 121.84 60.8023 121.84Z" fill="#3F3D56"/>
<path d="M60.8023 120.396C61.4412 120.396 61.9592 119.878 61.9592 119.239C61.9592 118.6 61.4412 118.082 60.8023 118.082C60.1634 118.082 59.6454 118.6 59.6454 119.239C59.6454 119.878 60.1634 120.396 60.8023 120.396Z" fill="#3F3D56"/>
<path d="M60.8023 118.951C61.4412 118.951 61.9592 118.433 61.9592 117.794C61.9592 117.155 61.4412 116.637 60.8023 116.637C60.1634 116.637 59.6454 117.155 59.6454 117.794C59.6454 118.433 60.1634 118.951 60.8023 118.951Z" fill="#3F3D56"/>
<path d="M60.8023 117.504C61.4412 117.504 61.9592 116.986 61.9592 116.347C61.9592 115.708 61.4412 115.19 60.8023 115.19C60.1634 115.19 59.6454 115.708 59.6454 116.347C59.6454 116.986 60.1634 117.504 60.8023 117.504Z" fill="#3F3D56"/>
<path d="M60.8023 116.056C61.4412 116.056 61.9592 115.538 61.9592 114.899C61.9592 114.26 61.4412 113.742 60.8023 113.742C60.1634 113.742 59.6454 114.26 59.6454 114.899C59.6454 115.538 60.1634 116.056 60.8023 116.056Z" fill="#3F3D56"/>
<path d="M62.5388 116.636C63.1777 116.636 63.6957 116.118 63.6957 115.479C63.6957 114.84 63.1777 114.322 62.5388 114.322C61.8998 114.322 61.3818 114.84 61.3818 115.479C61.3818 116.118 61.8998 116.636 62.5388 116.636Z" fill="#3F3D56"/>
<path d="M63.6957 116.056C64.3347 116.056 64.8527 115.538 64.8527 114.899C64.8527 114.26 64.3347 113.742 63.6957 113.742C63.0568 113.742 62.5388 114.26 62.5388 114.899C62.5388 115.538 63.0568 116.056 63.6957 116.056Z" fill="#3F3D56"/>
<path d="M64.8527 115.478C65.4917 115.478 66.0096 114.96 66.0096 114.321C66.0096 113.682 65.4917 113.164 64.8527 113.164C64.2138 113.164 63.6958 113.682 63.6958 114.321C63.6958 114.96 64.2138 115.478 64.8527 115.478Z" fill="#3F3D56"/>
<path d="M60.8023 114.612C61.4412 114.612 61.9592 114.094 61.9592 113.455C61.9592 112.816 61.4412 112.298 60.8023 112.298C60.1634 112.298 59.6454 112.816 59.6454 113.455C59.6454 114.094 60.1634 114.612 60.8023 114.612Z" fill="#3F3D56"/>
<path d="M60.8023 113.164C61.4412 113.164 61.9592 112.646 61.9592 112.008C61.9592 111.369 61.4412 110.851 60.8023 110.851C60.1634 110.851 59.6454 111.369 59.6454 112.008C59.6454 112.646 60.1634 113.164 60.8023 113.164Z" fill="#3F3D56"/>
<path d="M60.8023 111.719C61.4412 111.719 61.9592 111.201 61.9592 110.562C61.9592 109.923 61.4412 109.405 60.8023 109.405C60.1634 109.405 59.6454 109.923 59.6454 110.562C59.6454 111.201 60.1634 111.719 60.8023 111.719Z" fill="#3F3D56"/>
<path d="M60.8023 110.275C61.4412 110.275 61.9592 109.757 61.9592 109.118C61.9592 108.479 61.4412 107.961 60.8023 107.961C60.1634 107.961 59.6454 108.479 59.6454 109.118C59.6454 109.757 60.1634 110.275 60.8023 110.275Z" fill="#3F3D56"/>
<path d="M65.6068 105.386C65.3181 105.428 65.0295 105.459 64.7408 105.477C65.0092 105.243 65.2583 104.988 65.4857 104.714C65.3254 104.227 65.0898 103.77 64.7874 103.357C64.5006 103.518 64.1836 103.617 63.8563 103.65C63.5699 103.692 63.2813 103.722 62.9926 103.743C63.3721 103.433 63.7259 102.968 64.0983 102.579C63.2639 101.823 62.1948 101.376 61.0703 101.314C59.9458 101.252 58.8341 101.578 57.9215 102.238C57.0089 102.898 56.3509 103.852 56.0576 104.939C55.7644 106.027 55.8537 107.182 56.3107 108.211C56.7677 109.241 57.5645 110.082 58.5677 110.593C59.5709 111.105 60.7196 111.257 61.8212 111.023C62.9228 110.788 63.9105 110.183 64.6187 109.307C65.327 108.431 65.7128 107.339 65.7115 106.213C65.7116 105.929 65.6867 105.647 65.637 105.368L65.6068 105.386Z" fill="#0A79BF"/>
<path d="M69.464 111.133C69.169 111.314 68.836 111.425 68.491 111.456C68.2047 111.498 67.9161 111.531 67.6274 111.549C67.9342 111.274 68.2205 110.977 68.484 110.66C67.7865 110.478 67.0462 110.563 66.4079 110.898C65.7696 111.233 65.2792 111.794 65.0325 112.471C64.7858 113.149 64.8006 113.894 65.074 114.561C65.3474 115.227 65.8598 115.769 66.5109 116.078C67.162 116.387 67.905 116.443 68.5948 116.233C69.2845 116.024 69.8714 115.564 70.2406 114.945C70.6098 114.326 70.7348 113.592 70.5912 112.885C70.4476 112.179 70.0457 111.551 69.464 111.126V111.133Z" fill="#0A79BF"/>
<path d="M59.0681 116.636C59.707 116.636 60.225 116.118 60.225 115.479C60.225 114.84 59.707 114.322 59.0681 114.322C58.4291 114.322 57.9111 114.84 57.9111 115.479C57.9111 116.118 58.4291 116.636 59.0681 116.636Z" fill="#3F3D56"/>
<path d="M57.9112 116.056C58.5501 116.056 59.0681 115.538 59.0681 114.899C59.0681 114.26 58.5501 113.742 57.9112 113.742C57.2722 113.742 56.7543 114.26 56.7543 114.899C56.7543 115.538 57.2722 116.056 57.9112 116.056Z" fill="#3F3D56"/>
<path d="M56.7541 115.478C57.393 115.478 57.911 114.96 57.911 114.321C57.911 113.682 57.393 113.164 56.7541 113.164C56.1151 113.164 55.5972 113.682 55.5972 114.321C55.5972 114.96 56.1151 115.478 56.7541 115.478Z" fill="#3F3D56"/>
<path d="M52.1427 111.133C52.4377 111.314 52.7708 111.425 53.1157 111.456C53.4021 111.498 53.6907 111.531 53.9794 111.549C53.672 111.275 53.3856 110.977 53.1227 110.66C53.8203 110.478 54.5605 110.563 55.1988 110.898C55.8371 111.233 56.3276 111.794 56.5743 112.471C56.8209 113.149 56.8061 113.894 56.5327 114.561C56.2593 115.227 55.747 115.769 55.0959 116.078C54.4448 116.387 53.7017 116.443 53.012 116.233C52.3222 116.024 51.7354 115.564 51.3662 114.945C50.997 114.326 50.872 113.592 51.0156 112.885C51.1592 112.179 51.5611 111.551 52.1427 111.126V111.133Z" fill="#0A79BF"/>
<path d="M59.9713 122.409H62.7902C64.3337 122.409 65.8139 123.022 66.9053 124.114C67.9966 125.205 68.6097 126.685 68.6097 128.229V135.88C68.6097 136.142 68.5058 136.393 68.3207 136.578C68.1356 136.763 67.8845 136.867 67.6228 136.867H55.1318C54.87 136.867 54.619 136.763 54.4339 136.578C54.2488 136.393 54.1448 136.142 54.1448 135.88V128.229C54.1448 127.464 54.2955 126.707 54.5884 126C54.8813 125.294 55.3106 124.652 55.8517 124.111C56.3929 123.571 57.0352 123.142 57.7421 122.85C58.449 122.558 59.2065 122.408 59.9713 122.409Z" fill="#3F3D56"/>
<g opacity="0.1">
<path opacity="0.1" d="M65.6859 105.703C65.5688 105.828 65.4444 105.946 65.3135 106.057C65.4462 106.057 65.5765 106.036 65.7092 106.022C65.7046 105.915 65.6976 105.808 65.6859 105.703Z" fill="black"/>
<path opacity="0.1" d="M63.5769 104.319C63.8679 104.301 64.1542 104.27 64.4428 104.228C64.7018 104.196 64.9549 104.127 65.1947 104.024C65.077 103.791 64.9416 103.567 64.7897 103.355C64.6449 103.444 64.4881 103.51 64.3241 103.553C64.0959 103.828 63.846 104.084 63.5769 104.319Z" fill="black"/>
<path opacity="0.1" d="M56.4656 106.803C56.4638 105.921 56.7001 105.054 57.1496 104.294C57.5991 103.535 58.245 102.911 59.0195 102.488C59.7939 102.064 60.6682 101.858 61.5501 101.89C62.4321 101.922 63.2891 102.191 64.0309 102.669L64.1054 102.59C63.6213 102.159 63.0567 101.828 62.4442 101.617C61.8317 101.405 61.1834 101.317 60.5366 101.357C59.8898 101.397 59.2573 101.565 58.6756 101.85C58.094 102.136 57.5746 102.534 57.1473 103.021C56.7201 103.509 56.3936 104.076 56.1864 104.69C55.9793 105.304 55.8958 105.953 55.9406 106.599C55.9854 107.245 56.1577 107.877 56.4476 108.456C56.7374 109.036 57.1391 109.552 57.6295 109.976C56.8766 109.09 56.464 107.966 56.4656 106.803Z" fill="black"/>
</g>
<g opacity="0.1">
<path opacity="0.1" d="M67.6274 112.126C67.9161 112.107 68.2047 112.077 68.4911 112.035C68.8362 112.003 69.1692 111.892 69.4641 111.709C69.7909 111.95 70.0634 112.257 70.264 112.61C70.4645 112.963 70.5885 113.354 70.628 113.758C70.6393 113.656 70.6447 113.555 70.6443 113.453C70.6465 113.001 70.5423 112.554 70.3401 112.15C70.1379 111.746 69.8434 111.395 69.4804 111.125C69.1854 111.307 68.8523 111.417 68.5074 111.449L68.2746 111.479C68.0759 111.711 67.8596 111.927 67.6274 112.126Z" fill="black"/>
<path opacity="0.1" d="M67.7438 111.14C67.8403 111.141 67.9367 111.148 68.0324 111.161C68.1838 111 68.3327 110.828 68.484 110.66C68.0561 110.546 67.6076 110.532 67.1732 110.619C66.7389 110.705 66.3303 110.891 65.9792 111.161C65.6281 111.431 65.3439 111.778 65.1485 112.176C64.9532 112.574 64.8519 113.011 64.8527 113.454C64.8527 113.551 64.8527 113.647 64.8666 113.742C64.9382 113.029 65.2722 112.368 65.8039 111.887C66.3355 111.406 67.0269 111.14 67.7438 111.14Z" fill="black"/>
</g>
<g opacity="0.1">
<path opacity="0.1" d="M53.9795 112.127C53.6909 112.108 53.4022 112.078 53.1159 112.036C52.7708 112.004 52.4377 111.893 52.1429 111.71C51.816 111.951 51.5435 112.258 51.343 112.611C51.1425 112.964 51.0184 113.355 50.979 113.759C50.9677 113.657 50.9622 113.556 50.9627 113.454C50.9605 113.002 51.0647 112.555 51.2669 112.151C51.4691 111.747 51.7636 111.395 52.1266 111.126C52.4216 111.307 52.7546 111.418 53.0996 111.45L53.3324 111.48C53.5298 111.713 53.7462 111.93 53.9795 112.127Z" fill="black"/>
<path opacity="0.1" d="M53.863 111.14C53.7657 111.141 53.6686 111.148 53.5721 111.161C53.4231 111 53.2741 110.828 53.1228 110.66C53.5508 110.546 53.9993 110.532 54.4336 110.619C54.868 110.705 55.2765 110.891 55.6276 111.161C55.9787 111.431 56.2629 111.778 56.4583 112.176C56.6537 112.574 56.7549 113.011 56.7542 113.454C56.7542 113.551 56.7542 113.647 56.7402 113.742C56.6686 113.029 56.3346 112.368 55.803 111.887C55.2713 111.406 54.5799 111.14 53.863 111.14Z" fill="black"/>
</g>
<path d="M46.0184 139.665H23.2757C23.0195 139.665 22.7738 139.563 22.5926 139.382C22.4115 139.201 22.3097 138.955 22.3097 138.699V127.935C22.3096 127.772 22.3509 127.612 22.4295 127.469C22.5081 127.326 22.6216 127.205 22.7594 127.118C22.8972 127.031 23.0548 126.98 23.2175 126.971C23.3802 126.961 23.5428 126.992 23.6901 127.062C30.2242 130.163 37.2635 131.227 45.5714 127.111C45.7187 127.038 45.882 127.004 46.046 127.012C46.2101 127.02 46.3694 127.07 46.509 127.156C46.6487 127.242 46.7641 127.363 46.8444 127.506C46.9247 127.649 46.9673 127.81 46.9681 127.975V138.683C46.9703 138.809 46.9474 138.935 46.9009 139.053C46.8543 139.171 46.7849 139.279 46.6967 139.37C46.6085 139.462 46.5032 139.535 46.3868 139.585C46.2704 139.636 46.1452 139.663 46.0184 139.665Z" fill="#0A79BF"/>
<path opacity="0.1" d="M46.0184 139.665H23.2757C23.0195 139.665 22.7738 139.563 22.5926 139.382C22.4115 139.201 22.3097 138.955 22.3097 138.699V127.935C22.3096 127.772 22.3509 127.612 22.4295 127.469C22.5081 127.326 22.6216 127.205 22.7594 127.118C22.8972 127.031 23.0548 126.98 23.2175 126.971C23.3802 126.961 23.5428 126.992 23.6901 127.062C30.2242 130.163 37.2635 131.227 45.5714 127.111C45.7187 127.038 45.882 127.004 46.046 127.012C46.2101 127.02 46.3694 127.07 46.509 127.156C46.6487 127.242 46.7641 127.363 46.8444 127.506C46.9247 127.649 46.9673 127.81 46.9681 127.975V138.683C46.9703 138.809 46.9474 138.935 46.9009 139.053C46.8543 139.171 46.7849 139.279 46.6967 139.37C46.6085 139.462 46.5032 139.535 46.3868 139.585C46.2704 139.636 46.1452 139.663 46.0184 139.665Z" fill="black"/>
<path d="M34.4888 131.482C35.2319 131.482 35.8343 130.693 35.8343 129.72C35.8343 128.747 35.2319 127.958 34.4888 127.958C33.7457 127.958 33.1433 128.747 33.1433 129.72C33.1433 130.693 33.7457 131.482 34.4888 131.482Z" fill="#3F3D56"/>
<path d="M34.4888 129.329C35.2319 129.329 35.8343 128.54 35.8343 127.567C35.8343 126.594 35.2319 125.805 34.4888 125.805C33.7457 125.805 33.1433 126.594 33.1433 127.567C33.1433 128.54 33.7457 129.329 34.4888 129.329Z" fill="#3F3D56"/>
<path d="M34.4888 127.174C35.2319 127.174 35.8343 126.385 35.8343 125.412C35.8343 124.438 35.2319 123.649 34.4888 123.649C33.7457 123.649 33.1433 124.438 33.1433 125.412C33.1433 126.385 33.7457 127.174 34.4888 127.174Z" fill="#3F3D56"/>
<path d="M34.4888 125.021C35.2319 125.021 35.8343 124.232 35.8343 123.259C35.8343 122.286 35.2319 121.497 34.4888 121.497C33.7457 121.497 33.1433 122.286 33.1433 123.259C33.1433 124.232 33.7457 125.021 34.4888 125.021Z" fill="#3F3D56"/>
<path d="M34.4888 122.865C35.2319 122.865 35.8343 122.076 35.8343 121.103C35.8343 120.13 35.2319 119.341 34.4888 119.341C33.7457 119.341 33.1433 120.13 33.1433 121.103C33.1433 122.076 33.7457 122.865 34.4888 122.865Z" fill="#3F3D56"/>
<path d="M34.4888 120.709C35.2319 120.709 35.8343 119.92 35.8343 118.947C35.8343 117.974 35.2319 117.185 34.4888 117.185C33.7457 117.185 33.1433 117.974 33.1433 118.947C33.1433 119.92 33.7457 120.709 34.4888 120.709Z" fill="#3F3D56"/>
<path d="M34.4888 118.557C35.2319 118.557 35.8343 117.768 35.8343 116.794C35.8343 115.821 35.2319 115.032 34.4888 115.032C33.7457 115.032 33.1433 115.821 33.1433 116.794C33.1433 117.768 33.7457 118.557 34.4888 118.557Z" fill="#3F3D56"/>
<path d="M39.5354 102.05C39.7181 101.815 39.8853 101.569 40.0359 101.312L36.4976 100.73L40.3245 100.758C40.6938 99.9583 40.8952 99.0912 40.9164 98.2104C40.9376 97.3296 40.7782 96.4538 40.4479 95.637L35.3151 98.3001L40.0499 94.8084C39.6065 94.0416 39.01 93.3745 38.2976 92.8483C37.5851 92.3222 36.772 91.9485 35.9087 91.7504C35.0455 91.5523 34.1508 91.534 33.2802 91.6968C32.4096 91.8596 31.5819 92.1999 30.8486 92.6966C30.1153 93.1933 29.4922 93.8356 29.018 94.5836C28.5438 95.3316 28.2287 96.1693 28.0924 97.0444C27.956 97.9195 28.0014 98.8133 28.2256 99.6701C28.4498 100.527 28.848 101.328 29.3955 102.025C29.1078 102.388 28.8612 102.782 28.6599 103.2L33.2503 105.612L28.362 103.959C28.0193 104.975 27.935 106.06 28.1167 107.117C28.2983 108.173 28.7402 109.168 29.4025 110.011C28.6541 110.963 28.1886 112.106 28.0591 113.309C27.9296 114.513 28.1414 115.728 28.6703 116.817C29.1992 117.906 30.0238 118.824 31.0498 119.466C32.0759 120.109 33.2619 120.449 34.4724 120.449C35.6829 120.449 36.869 120.109 37.8951 119.466C38.9211 118.824 39.7457 117.906 40.2746 116.817C40.8034 115.728 41.0153 114.513 40.8858 113.309C40.7563 112.106 40.2908 110.963 39.5424 110.011C40.4365 108.874 40.9226 107.47 40.9226 106.024C40.9226 104.577 40.4365 103.173 39.5424 102.036L39.5354 102.05Z" fill="#0A79BF"/>
<path opacity="0.1" d="M28.0105 106.037C28.0084 107.484 28.4948 108.889 29.3909 110.025C28.6425 110.976 28.177 112.119 28.0475 113.323C27.918 114.526 28.1298 115.742 28.6587 116.831C29.1876 117.92 30.0122 118.838 31.0382 119.48C32.0643 120.122 33.2503 120.463 34.4608 120.463C35.6714 120.463 36.8574 120.122 37.8835 119.48C38.9095 118.838 39.7341 117.92 40.263 116.831C40.7919 115.742 41.0037 114.526 40.8742 113.323C40.7447 112.119 40.2792 110.976 39.5308 110.025C40.3944 108.929 28.0105 105.313 28.0105 106.037Z" fill="black"/>
<path d="M46.0184 140.235H23.2757C23.0195 140.235 22.7738 140.133 22.5926 139.952C22.4115 139.771 22.3097 139.525 22.3097 139.269V127.935C22.3096 127.772 22.3509 127.612 22.4295 127.469C22.5081 127.326 22.6216 127.205 22.7594 127.118C22.8972 127.031 23.0548 126.98 23.2175 126.971C23.3802 126.961 23.5428 126.992 23.6901 127.062C30.2242 130.163 35.4059 133.778 45.5714 127.111C46.1743 126.715 46.9681 127.255 46.9681 127.975V139.264C46.9694 139.519 46.8704 139.763 46.6926 139.945C46.5148 140.127 46.2726 140.231 46.0184 140.235Z" fill="#0A79BF"/>
<path d="M214.779 137.029L181.226 141.468L179.548 141.689L163.144 132.927V130.877L214.407 125.285L214.779 137.029Z" fill="#9C9CA1"/>
<path d="M172.651 133.86L209 129.574L208.627 136.285L180.314 138.362L172.651 133.86Z" fill="#939498"/>
<path opacity="0.4" d="M181.227 139.264V141.466L179.548 141.699L163.142 132.928V130.877L178.801 139.257C178.801 139.257 180.854 139.45 181.227 139.264Z" fill="black"/>
<path d="M187.668 104.313L180.135 139.242C180.059 139.591 180.068 139.954 180.162 140.299C180.256 140.645 180.431 140.962 180.674 141.226C180.916 141.489 181.218 141.69 181.555 141.812C181.891 141.933 182.252 141.973 182.607 141.926L230.264 135.617C230.679 135.562 231.07 135.392 231.393 135.125C231.716 134.858 231.957 134.506 232.089 134.109L242.371 103.102C242.485 102.758 242.513 102.392 242.453 102.035C242.394 101.677 242.248 101.34 242.029 101.051C241.81 100.762 241.524 100.531 241.196 100.378C240.868 100.224 240.507 100.153 240.146 100.169L189.744 102.562C189.254 102.586 188.785 102.77 188.409 103.086C188.034 103.402 187.773 103.834 187.668 104.313Z" fill="#3F3D56"/>
<path d="M213.854 117.198C213.971 116.086 213.486 115.123 212.772 115.048C212.057 114.973 211.383 115.814 211.266 116.926C211.149 118.039 211.634 119.001 212.348 119.076C213.063 119.152 213.737 118.311 213.854 117.198Z" fill="white"/>
</g>
<defs>
<clipPath id="clip0">
<rect width="267.697" height="146.067" fill="white" transform="translate(0.195557 0.199219)"/>
</clipPath>
</defs>
</svg>
